/* XPM */
static char *result[] = {
/* columns rows colors chars-per-pixel */
"32 32 17 1 ",
"  c #744141",
". c #AC5C56",
"X c #B57A6F",
"o c #4C342F",
"O c #634A45",
"+ c #553D39",
"@ c #3A2B28",
"# c #6E7D61",
"$ c #4C403D",
"% c #8F9D84",
"& c #5F7050",
"* c #E4B5A5",
"= c #D2A394",
"- c #425059",
"; c #57636B",
": c #362623",
"> c #554C3C",
/* pixels */
"                                ",
" ..............  XXXXXXXXXXXXXX ",
" ..............  XXXXXXXXXXXXXX ",
" ..............  XXXXXXXXXXXXXX ",
" ..............  XXXXXXXXXXXXXX ",
" .............o  ooXXXXXXXXXXXX ",
" ............oOooOOoooXXXXXXXXX ",
" ...........OOOOOOOOOXXXXXXXXXX ",
" ..........oOOOOOOOooOXXXXXXXXX ",
" .........ooOOOOOOoOOOXXXXXXXXX ",
" ..........OOOOOOOOOOOoXXXXXXXX ",
" ..........+OOoOoOOOOoXXXXXXXXX ",
" .........++OOOoOOOOO+XXXXXXXXX ",
" ..........++OOOOOOOO++         ",
" ..........+++OOOOOO++          ",
" ...........++OOOO+++.......... ",
" ............+++++++........... ",
"            @#@###@#@.......... ",
"            @@#####@@.......... ",
" XXXXXXXXXX@@@#####@@@......... ",
" XXXXXXXXXX$#@#%%%#@#$......... ",
" XXXXXXXXX$$X##&&&##.$$........ ",
" XXXXXXXXX*=X@#%%%#@.=*........ ",
" XXXXXXXXXXXX-------........... ",
" XXXXXXXXXXXX-;;;;;-........... ",
" XXXXXXXXXXXX-;;;;;-........... ",
" XXXXXXXXXXXX--- ---........... ",
" XXXXXXXXXXXX--  .--........... ",
" XXXXXXXXXXXX::  .::........... ",
" XXXXXXXXXXX>::  .::>.......... ",
" XXXXXXXXXXXXXX  .............. ",
"                                "
};
