/* XPM */
static char *result[] = {
/* columns rows colors chars-per-pixel */
"32 32 12 1 ",
"  c #744141",
". c #AC5C56",
"X c #B57A6F",
"o c #353540",
"O c #BFB8B4",
"+ c #EDE4DA",
"@ c #735B42",
"# c #5D483C",
"$ c #918D8D",
"% c #EEB551",
"& c #E39347",
"* c #4A3C36",
/* pixels */
"                                ",
" ..............  XXXXXXXXXXXXXX ",
" ..............  XXXXXXXXXXXXXX ",
" ..............  XXXXXXXXXXXXXX ",
" ..............  XXXXXXXXXXXXXX ",
" ..............  XXXXXXXXXXXXXX ",
" ..............  XXXXXXXXXXXXXX ",
" ..............  XXXXXXXXXXXXXX ",
" ..............  XXXXXXXXXXXXXX ",
" ..............  XXXXXXXXXXXXXX ",
" ..............  XXXXXXXXXXXXXX ",
" ..............  XXXXXXXXXXXXXX ",
" ..............  XXXXXXXXXXXXXX ",
" ...oooooooooooooooooooooooo    ",
" ...oOOOOOOOOOOOOOOOOOOO+++o    ",
" ...oO@@#@@@@@@OO@@#@@@@@@+o... ",
" ...oO@@#@@@@@@OO@@#@@@@@@Oo... ",
"    oO#########OO#########Oo... ",
"    oO@@@@@@#@@OO@@@@@@#@@Oo... ",
" XX$oO@@@@@@#@@OO@@@@@@#@@Oo$.. ",
" XX$oOOOOOOOOO%%%%OOOOOOOOOo$.. ",
" XX$o$$$$$$$$$&&&&$$$$$$$$$o$.. ",
" XX$o$##*#####&&&&#####*##$o$.. ",
" XX$o$##*######$$######*##$o$.. ",
" XX$o$*********$$*********$o$.. ",
" XX$o$######*##$$##*######$o$.. ",
" XX$o$######*##$$##*######$o$.. ",
" XX$o$$$$$$$$$$$$$$$$$$$$$$o$.. ",
" XX$oooooooooooooooooooooooo$.. ",
" XX$$$$$$$$$$$$$$$$$$$$$$$$$$.. ",
" XXXXXXXXXXXXXX  .............. ",
"                                "
};
