/* XPM */
static char *result[] = {
/* columns rows colors chars-per-pixel */
"32 32 11 1 ",
"  c #744141",
". c #AC5C56",
"X c #B57A6F",
"o c #353540",
"O c #BFB8B4",
"+ c #EEB551",
"@ c #EDE4DA",
"# c #918D8D",
"$ c #5D483C",
"% c #4A3C36",
"& c #E39347",
/* pixels */
"                                ",
" ..............  XXXXXXXXXXXXXX ",
" ..............  XXXXXXXXXXXXXX ",
" ..............  XXXXXXXXXXXXXX ",
" ..............  XXXXXXXXXXXXXX ",
" ..............  XXXXXXXXXXXXXX ",
" ...ooooooooooooooooooooooooXXX ",
" ...oOOOOOOOOO++++OOOOOO@@@oXXX ",
" ...o#########++++#########oXXX ",
" ...o#$$%$$$$$&&&&$%$$$$$$#oXXX ",
" ...o#$$%$$$$$$##$$%$$$$$$#oXXX ",
" ...o#%%%%%%%%%##%%%%%%%%%#oXXX ",
" ...o#$$$$$$%$$##$$$$$$%$$#oXXX ",
" ...o#$$$$$$%$$##$$$$$$%$$#o    ",
" ...oO####################Oo    ",
" ...oOooooooooooooooooooooOo... ",
" ...oOooooooooooooooooooooOo... ",
"    oOooooooooooooooooooooOo... ",
"    oOooooooooooooooooooooOo... ",
" XX#oOooooooooooooooooooooOo#.. ",
" XX#oOOOOOOOOOOOOOOOOOOOOOOo#.. ",
" XX#o######################o#.. ",
" XX#o#$$%$$$$$$##$$$$$$%$$#o#.. ",
" XX#o#$$%$$$$$$##$$$$$$%$$#o#.. ",
" XX#o#%%%%%%%%%##%%%%%%%%%#o#.. ",
" XX#o#$$$$$$%$$##$$%$$$$$$#o#.. ",
" XX#o#$$$$$$%$$##$$%$$$$$$#o#.. ",
" XX#o######################o#.. ",
" XX#oooooooooooooooooooooooo#.. ",
" XX##########################.. ",
" XXXXXXXXXXXXXX  .............. ",
"                                "
};
