/* XPM */
static char *b5f8b6b53fce4404c102d3dd58c8700adyW6Xn1IXQNnR6Kh[] = {
/* columns rows colors chars-per-pixel */
"32 32 3 1 ",
"  c #744141",
". c #AC5C56",
"X c #B57A6F",
/* pixels */
"                                ",
" ..............  XXXXXXXXXXXXXX ",
" ..............  XXXXXXXXXXXXXX ",
" ..............  XXXXXXXXXXXXXX ",
" ..............  XXXXXXXXXXXXXX ",
" ..............  XXXXXXXXXXXXXX ",
" ..............  XXXXXXXXXXXXXX ",
" ..............  XXXXXXXXXXXXXX ",
" ..............  XXXXXXXXXXXXXX ",
" ..............  XXXXXXXXXXXXXX ",
" ..............  XXXXXXXXXXXXXX ",
" ..............  XXXXXXXXXXXXXX ",
" ..............  XXXXXXXXXXXXXX ",
" ..............                 ",
" ..............                 ",
" ..............  .............. ",
" ..............  .............. ",
"                 .............. ",
"                 .............. ",
" XXXXXXXXXXXXXX  .............. ",
" XXXXXXXXXXXXXX  .............. ",
" XXXXXXXXXXXXXX  .............. ",
" XXXXXXXXXXXXXX  .............. ",
" XXXXXXXXXXXXXX  .............. ",
" XXXXXXXXXXXXXX  .............. ",
" XXXXXXXXXXXXXX  .............. ",
" XXXXXXXXXXXXXX  .............. ",
" XXXXXXXXXXXXXX  .............. ",
" XXXXXXXXXXXXXX  .............. ",
" XXXXXXXXXXXXXX  .............. ",
" XXXXXXXXXXXXXX  .............. ",
"                                "
};
