/* XPM */
static char *result[] = {
/* columns rows colors chars-per-pixel */
"32 32 21 1 ",
"  c #744141",
". c #AC5C56",
"X c #B57A6F",
"o c #4C342F",
"O c #634A45",
"+ c #D2A394",
"@ c #0C0A07",
"# c #E4B5A5",
"$ c #553D39",
"% c #B56A68",
"& c #291A18",
"* c #3A2B28",
"= c #6E7D61",
"- c #C0AC98",
"; c #4C403D",
": c #DBCBBC",
"> c #87947C",
", c #425059",
"< c #57636B",
"1 c #362623",
"2 c #554C3C",
/* pixels */
"                                ",
" ..............  XXXXXXXXXXXXXX ",
" ..............  XXXXXXXXXXXXXX ",
" ..............  XXXXXXXXXXXXXX ",
" ..............  XXXXXXXXXXXXXX ",
" .............oo XoXXXXXXXXXXXX ",
" ..........oooOOooOoXXXXXXXXXXX ",
" ...........OOOOOOOOOXXXXXXXXXX ",
" ..........OOOOOOOOOOoXXXXXXXXX ",
" ..........OOOooOoOOOooXXXXXXXX ",
" .........ooOO+oO+OOOOXXXXXXXXX ",
" ..........oO+++O++OOOXXXXXXXXX ",
" ..........OO+@#+#@+oOOXXXXXXXX ",
" .........$O%+&###&+%$          ",
" ..........$$+#####+$$          ",
" ...........$$+###+$$.......... ",
" ............$@+++@$........... ",
"            *=*---*=*.......... ",
"            *=;::-;=*.......... ",
" XXXXXXXXXX**>;:::;>**......... ",
" XXXXXXXXXX;*=;-::;=*;......... ",
" XXXXXXXXX;;**;:-:;**;;........ ",
" XXXXXXXXX#+X**,,,**.+#........ ",
" XXXXXXXXXXXX,,,,,,,........... ",
" XXXXXXXXXXXX,<<<<<,........... ",
" XXXXXXXXXXXX,<<,<<,........... ",
" XXXXXXXXXXXX,<, ,<,........... ",
" XXXXXXXXXXXX,,  .,,........... ",
" XXXXXXXXXXXX11  .11........... ",
" XXXXXXXXXXX221  .122.......... ",
" XXXXXXXXXXXXXX  .............. ",
"                                "
};
