/* XPM */
static char *cd107e9bc4314529a78791abee1c7435RMp9BjWYG84NJbMH[] = {
/* columns rows colors chars-per-pixel */
"32 32 11 1 ",
"  c #744141",
". c #AC5C56",
"X c #B57A6F",
"o c #382D48",
"O c #EBD6F4",
"+ c #C782F2",
"@ c #6937AD",
"# c #9A55C6",
"$ c #8B7172",
"% c #49397A",
"& c #7B7258",
/* pixels */
"                                ",
" ..............  XXXXXXXXXXXXXX ",
" .............ooooXXXXXXXXXXXXX ",
" ............oOO++oXXXXXXXXXXXX ",
" ...........oO+O+++oXXXXXXXXXXX ",
" ..........oO++O++@+oXXXXXXXXXX ",
" .........oO+++O+@+@@oXXXXXXXXX ",
" ........oO++++O++@@@@oXXXXXXXX ",
" .......oO+++++O+@@@@@@oXXXXXXX ",
" ......oO++++++O+@@@@@@@oXXXXXX ",
" .....oO++++++O#O+@@@@@@@oXXXXX ",
" ....oO++++++O#OO#+@@@@@@@oXXXX ",
" ...oO++++++O#OO##O+@@@@@@@oXXX ",
" ..oO++++++O#OO##O##+@@@@@@@o   ",
" .oO++++++O#OO##O####+@@@@@@@o  ",
" .oOOOOOOO#OO##O######+++++++o. ",
" .o+++++++OO##O#######+@@@@@@o. ",
"  o++++++++##O#######+@@@@@$@o. ",
"   o+@+@+@@+O#######+@%@%@&@o.. ",
" XXXo+@+@@@@+######+%%@%@&@o... ",
" XXXXo+@@@@@@+####+%%%%%&@o.... ",
" XXXXXo@@@@@@@+##+%%%%%&@o..... ",
" XXXXXXo@@@@@@@++%%%%%&%o...... ",
" XXXXXXXo@@@@@@+%%%%%&%o....... ",
" XXXXXXXXo@@@@@+%%%%&%o........ ",
" XXXXXXXXXo@@@@+%%%&%o......... ",
" XXXXXXXXXXo@@@+%%&%o.......... ",
" XXXXXXXXXXXo@@+%&%o........... ",
" XXXXXXXXXXXXo@+%%o............ ",
" XXXXXXXXXXXXXoooo............. ",
" XXXXXXXXXXXXXX  .............. ",
"                                "
};
