/* XPM */
static char *e9c29971154a4fc7cf2248fd0f68669d4wOaZMoHvkFHu0Rp[] = {
/* columns rows colors chars-per-pixel */
"32 32 22 1 ",
"  c #744141",
". c #AC5C56",
"X c #B57A6F",
"o c #4C342F",
"O c #553D39",
"+ c #634A45",
"@ c #D2A394",
"# c #0C0A07",
"$ c #E4B5A5",
"% c #291A18",
"& c #B56A68",
"* c #3A2B28",
"= c #C0AC98",
"- c #6E7D61",
"; c #DBCBBC",
": c #4C403D",
"> c #87947C",
", c #657358",
"< c #425059",
"1 c #57636B",
"2 c #362623",
"3 c #554C3C",
/* pixels */
"                                ",
" ..............  XXXXXXXXXXXXXX ",
" ..............  XXXXXXXXXXXXXX ",
" ..............  XXXXXXXXXXXXXX ",
" ..............  XXXXXXXXXXXXXX ",
" ..............o ooXXXXXXXXXXXX ",
" ............O++o++OoXXXXXXXXXX ",
" .............+++++++oOXXXXXXXX ",
" ............O+++++++OOXXXXXXXX ",
" ............+oo++++++OXXXXXXXX ",
" ...........o+@o+o+++OooXXXXXXX ",
" ............+@@+@++++oXXXXXXXX ",
" ............@#@$#@+o+OOXXXXXXX ",
" ...........o@%$$%@@&+O         ",
" ............@$$$$@@OOO         ",
" .............@$$$@OOO......... ",
" ..............@@@#OO.......... ",
"              *===*-*.......... ",
"              *;;=:-*.......... ",
" XXXXXXXXXXXX:*;;;:>**......... ",
" XXXXXXXXXXXX:*=;;::-:......... ",
" XXXXXXXXXXX:**;=;:*,::........ ",
" XXXXXXXXXXX@**<<<**,@$........ ",
" XXXXXXXXXXXXX<<<<<<........... ",
" XXXXXXXXXXXXX1111<<........... ",
" XXXXXXXXXXXXX11<11<........... ",
" XXXXXXXXXXXXX1< <1<........... ",
" XXXXXXXXXXXXX<< <1<........... ",
" XXXXXXXXXXXXX22 222........... ",
" XXXXXXXXXXXX332 333........... ",
" XXXXXXXXXXXXXX  .............. ",
"                                "
};
