/* XPM */
static char *_5968493cf2641578f8ce50cbd51c3b8sSdPYkpZEkEQYXFY[] = {
/* columns rows colors chars-per-pixel */
"32 32 11 1 ",
"  c #744141",
". c #AC5C56",
"X c #B57A6F",
"o c red",
"O c #FFAAAA",
"+ c #FF5555",
"@ c #FF5500",
"# c #AA0000",
"$ c #AAAAAA",
"% c #555555",
"& c #550000",
/* pixels */
"                                ",
" ..............  XXXXXXXXXXXXXX ",
" ..............  XXXXXXXXXXXXXX ",
" ..............  XXXXXXXXXXXXXX ",
" ..............  XXXXXXXXXXXXXX ",
" ............oOO++XXXXXXXXXXXXX ",
" ...........oOOOo++XXXXXXXXXXXX ",
" ...........OOOOo+++XXXXXXXXXXX ",
" ..........oOOOOoo++XXXXXXXXXXX ",
" ..........+ooOoooooXXXXXXXXXXX ",
" ..........++++oo@@XXXXXXXXXXXX ",
" ..........+++o#o@@XXXXXXXXXXXX ",
" ..........++o##o@XXXXXXXXXXXXX ",
" ..........oo###o@              ",
" ...........oooo#o              ",
" $$%$%%%....@@@@o#............. ",
" $......%...@@@o#.#............ ",
" %               #o@........... ",
"       ++o#oo@oo#o@#........... ",
" XXXXXX+oo##@@#&+o@@........... ",
" XXXXXXXXXXXXXX  .o#........... ",
" XXXXXXXXXXXXo######........... ",
" XXXXXXXXXXXXo@@@##............ ",
" XXXXXXXXXXXX#o@##............. ",
" XXXXXXXXXXXXooo##............. ",
" XXXXXXXXXXXX+@##&............. ",
" XXXXXXXXXXXX&@@o##............ ",
" XXXXXXXXXXXXo&&&o#............ ",
" XXXXXXXXXXX@@o  +o............ ",
" XXXXXXXX%%XooX%%..%%%......... ",
" XXXXXXXX%%%%%%%%%%%%%......... ",
"           %%%%%%%%%            "
};
