/* XPM */
static char *_c606df7fdd74ed0fbf3154af330fbe7bGRTfbY4BtZ2H0OJ[] = {
/* columns rows colors chars-per-pixel */
"32 32 11 1 ",
"  c #744141",
". c #AC5C56",
"X c #B57A6F",
"o c #AAAAAA",
"O c black",
"+ c black",
"@ c #555555",
"# c black",
"$ c #AA0000",
"% c #550000",
"& c black",
/* pixels */
"                                ",
" ..............  XXXXXXXXXXXXXX ",
" ..............  XXXXXXXXXXXXXX ",
" ..............  XXXXXXXXXXXXXX ",
" ..............  XXXXoXoXXXXXXX ",
" ...........OO+OO+XXXoXoXXXXXXX ",
" ..........OO++OOO+XX@X@XXXXXXX ",
" ..........O+++OOOOXXoXoXXXXXXX ",
" ..........+++++OOOOX@X@XXXXXXX ",
" ..........####+O++$X@X@XXXXXXX ",
" ..........###++++$$X@X@XXXXXXX ",
" ..........##+++####XX@XXXXXXXX ",
" ..........#+++$+##XX$OXXXXXXXX ",
" ...........+++$$+#  ++         ",
" ...........$$+$$$   $+         ",
" ..............  ...$##........ ",
" .........OOO$$$$$$++#......... ",
"         ++O++OOOOO+OO......... ",
"         +$$+++OOO++$O......... ",
" XXXXXXX++%$++++O+$+%.......... ",
" XXXXXXXO+X%##+++$$%........... ",
" XXXXXXXO$XX+#++$$$............ ",
" XXXXXXX$XXXX$++++............. ",
" XXXXXXX$+XXX$$++$............. ",
" XXXXXXXO$XXX##$+.............. ",
" XXXXXXXXXXXX#$$ OO............ ",
" XXXXXXXXXXX++X  ++............ ",
" XXXXXXXXXXX#+X  $+............ ",
" XXXXXXXXXXX#+X@@&&@........... ",
" XXXXXXXX@@X$$X@@@@@@@......... ",
" XXXXXXXX@@@@@@@@@@@@@......... ",
"           @@@@@@@@@            "
};
