/* XPM */
static char *_48308910ce04076d29906d97578da865vCahKq7LWvpsqOm[] = {
/* columns rows colors chars-per-pixel */
"32 32 11 1 ",
"  c #744141",
". c #AC5C56",
"X c #B57A6F",
"o c black",
"O c #AA0000",
"+ c black",
"@ c black",
"# c black",
"$ c #550000",
"% c #555555",
"& c #AAAAAA",
/* pixels */
"                                ",
" ..............  XXXXXXXXXXXXXX ",
" ..............  XXXXXXXXXXXXXX ",
" ..............  XXXXXXXXXXXXXX ",
" ..............  XXXXXXXXXXXXXX ",
" ............oOOOOoXXXXXXXXXXXX ",
" ...........oooOOoooXXXXXXXXXXX ",
" ...........oooOooooXXXXXXXXXXX ",
" ...........+++o@@@ooXXXXXXXXXX ",
" ...........++ooo@@@@XXXXXXXXXX ",
" ...........+o@o#o@@@XXXXXXXXXX ",
" ...........o@@o##o@@XXXXXXXXXX ",
" ...........@@@o###oXXXXXXXXXXX ",
" ............@@oo###            ",
" ............@oooo#             ",
" ............$ooooO............ ",
" ..........@$.$ooOO.$@......... ",
"          @oO $$OO.OooO........ ",
"          o++$ $$O.++oo........ ",
" XXXXXXXX@o$+o$  .$+o$++....... ",
" XXXXXXXX+oX$@@OOO@@$.o+....... ",
" XXXXXXXX+OXXO@@oo@O..Oo....... ",
" XXXXXXXXo@XXXO$o$O....o....... ",
" XXXXXXXXX%XXXoo@oo...Oo....... ",
" XXXXXXXX%X%XXo+@@o...o@....... ",
" XXXXXXXX%X%XOooOo@............ ",
" XXXXXXXX%X%X+o$ $o@........... ",
" XXXXXXXX&X&X@+  .oo........... ",
" XXXXXXXX%X%%XX%%.+............ ",
" XXXXXXXX&X&%%%%%.o+.%%........ ",
" XXXXXXXX&X&%%%%%%%%%%%........ ",
"           %%%%%%%%%%%          "
};
