/* XPM */
static char *_e6262e78f104dc3bbb6ab0b3466f9f91eh5QnGfHphHso3K[] = {
/* columns rows colors chars-per-pixel */
"32 32 11 1 ",
"  c #744141",
". c #AC5C56",
"X c #B57A6F",
"o c black",
"O c black",
"+ c black",
"@ c black",
"# c #AA0000",
"$ c #555555",
"% c #AAAAAA",
"& c #550000",
/* pixels */
"                                ",
" ..............  XXXXXXXXXXXXXX ",
" ..............  XXXXXXXXXXXXXX ",
" ..............  XXXXXXXXXXXXXX ",
" ..............  XXXXXXXXXXXXXX ",
" .............ooOO+XXXXXXXXXXXX ",
" ............oo+OOO+XXXXXXXXXXX ",
" ...........ooo+OOOOXXXXXXXXXXX ",
" ...........oo++OOOO+XXXXXXXXXX ",
" ...........+++++O++oXXXXXXXXXX ",
" ............@@++ooooXXXXXXXXXX ",
" ............@@+#+oooXXXXXXXXXX ",
" .............@+##+ooXXXXXXXXXX ",
" .............@+###++           ",
" .............+#++++            ",
" .............#+@@@@....$$$%$%% ",
" ............#.#+@@@...$......% ",
"            @+#  .............$ ",
"            #@+#++@++#+oo...... ",
" XXXXXXXXXXX@@+o&#@@##++o...... ",
" XXXXXXXXXXX#+X  .............. ",
" XXXXXXXXXXX######+............ ",
" XXXXXXXXXXXX##@@@+............ ",
" XXXXXXXXXXXXX##@+#............ ",
" XXXXXXXXXXXXX##+++............ ",
" XXXXXXXXXXXXX&##@o............ ",
" XXXXXXXXXXXX##+@@&............ ",
" XXXXXXXXXXXX#+&&&+............ ",
" XXXXXXXXXXXX+o  +@@........... ",
" XXXXXXXXX$$$XX$$.++.$$........ ",
" XXXXXXXXX$$$$$$$$$$$$$........ ",
"            $$$$$$$$$           "
};
