/* XPM */
static char *_13c76055730477dc99e67f9732f129cIie08jp5oPKOLxlg[] = {
/* columns rows colors chars-per-pixel */
"32 32 22 1 ",
"  c #744141",
". c #AC5C56",
"X c #B57A6F",
"o c #4C342F",
"O c #553D39",
"+ c #634A45",
"@ c #D2A394",
"# c #0C0A07",
"$ c #E4B5A5",
"% c #B56A68",
"& c #291A18",
"* c #3A2B28",
"= c #6E7D61",
"- c #C0AC98",
"; c #4C403D",
": c #DBCBBC",
"> c #87947C",
", c #657358",
"< c #425059",
"1 c #57636B",
"2 c #362623",
"3 c #554C3C",
/* pixels */
"                                ",
" ..............  XXXXXXXXXXXXXX ",
" ..............  XXXXXXXXXXXXXX ",
" ..............  XXXXXXXXXXXXXX ",
" ..............  XXXXXXXXXXXXXX ",
" .............oooXoXXXXXXXXXXXX ",
" .........oooO+++o+XXXXXXXXXXXX ",
" ..........O++++++++XXXXXXXXXXX ",
" .........O+++++++++XXXXXXXXXXX ",
" .........O++++oo+++XXXXXXXXXXX ",
" ........ooO+++@o+o+OXXXXXXXXXX ",
" .........o+++@@@+@+XXXXXXXXXXX ",
" .........O++@@#$$#@OXXXXXXXXXX ",
" ........oO+%@@&$$&@            ",
" .........OOO@@$$$$@            ",
" ..........OOO@$$$@............ ",
" ...........OO#@@@............. ",
"            *=*---*............ ",
"            *=;::-*............ ",
" XXXXXXXXXX**>;:::*;........... ",
" XXXXXXXXXX;=;;-::*;........... ",
" XXXXXXXXX;;,*;:-:**;.......... ",
" XXXXXXXXX$@,**<<<**@.......... ",
" XXXXXXXXXXXX<<<<<<............ ",
" XXXXXXXXXXXX<<111<............ ",
" XXXXXXXXXXXX<11<11............ ",
" XXXXXXXXXXXX<1< <1............ ",
" XXXXXXXXXXXX<1< <<............ ",
" XXXXXXXXXXXX222 22............ ",
" XXXXXXXXXXXX333 233........... ",
" XXXXXXXXXXXXXX  .............. ",
"                                "
};
