/* XPM */
static char *_74da0f3e61146f3acfc42fd3247e256MMuHldYKIDdZM0sY[] = {
/* columns rows colors chars-per-pixel */
"32 32 3 1 ",
"  c #BBABB1",
". c #DBD5D5",
"X c #CBBDBD",
/* pixels */
"                                ",
" .............................. ",
" .............................. ",
" ..XXXXXXXXXXXXXXXXXXXXXXXXXXXX ",
" ..XXXXXXXXXXXXXXXXXXXXXXXXXXXX ",
" ..XXXXXXXXXXXXXXXXXXXXXXXXXXXX ",
" ..XXXXXXXXXXXXXXXXXXXXXXXXXXXX ",
" ..XXXXXXXXXXXXXXXXXXXXXXXXXXXX ",
" ..XXXXXXXXXXXXXXXXXXXXXXXXXXXX ",
" ..XXXXXXXXXXXXXXXXXXXXXXXXXXXX ",
" ..XXXXXXXXXXXXXXXXXXXXXXXXXXXX ",
" ..XXXXXXXXXXXXXXXXXXXXXXXXXXXX ",
" ..XXXXXXXXXXXXXXXXXXXXXXXXXXXX ",
" ..XXXXXXXXXXXXXXXXXXXXXXXXXXXX ",
" ..XXXXXXXXXXXXXXXXXXXXXXXXXXXX ",
" ..XXXXXXXXXXXXXXXXXXXXXXXXXXXX ",
" ..XXXXXXXXXXXXXXXXXXXXXXXXXXXX ",
" ..XXXXXXXXXXXXXXXXXXXXXXXXXXXX ",
" ..XXXXXXXXXXXXXXXXXXXXXXXXXXXX ",
" ..XXXXXXXXXXXXXXXXXXXXXXXXXXXX ",
" ..XXXXXXXXXXXXXXXXXXXXXXXXXXXX ",
" ..XXXXXXXXXXXXXXXXXXXXXXXXXXXX ",
" ..XXXXXXXXXXXXXXXXXXXXXXXXXXXX ",
" ..XXXXXXXXXXXXXXXXXXXXXXXXXXXX ",
" ..XXXXXXXXXXXXXXXXXXXXXXXXXXXX ",
" ..XXXXXXXXXXXXXXXXXXXXXXXXXXXX ",
" ..XXXXXXXXXXXXXXXXXXXXXXXXXXXX ",
" ..XXXXXXXXXXXXXXXXXXXXXXXXXXXX ",
" ..XXXXXXXXXXXXXXXXXXXXXXXXXXXX ",
" ..XXXXXXXXXXXXXXXXXXXXXXXXXXXX ",
" ..XXXXXXXXXXXXXXXXXXXXXXXXXXXX ",
"                                "
};
